<?xml version="1.0" standalone="no"?>
<!DOCTYPE svg PUBLIC "-//W3C//DTD SVG 20010904//EN"
 "http://www.w3.org/TR/2001/REC-SVG-20010904/DTD/svg10.dtd">
<svg version="1.0" xmlns="http://www.w3.org/2000/svg"
 width="256.000000pt" height="256.000000pt" viewBox="0 0 256.000000 256.000000"
 preserveAspectRatio="xMidYMid meet">

<g transform="translate(0.000000,256.000000) scale(0.100000,-0.100000)"
fill="#000000" stroke="none">
<path d="M1145 2433 c-542 -70 -951 -449 -1041 -964 -29 -169 -9 -421 45 -563
7 -16 10 -31 7 -33 -2 -2 -12 19 -22 47 -10 28 -20 47 -22 42 -2 -6 15 -57 37
-114 124 -315 413 -584 744 -692 143 -47 222 -59 387 -59 172 -1 264 14 410
65 279 99 519 299 658 550 52 94 105 223 100 240 -2 5 -12 -14 -22 -42 -10
-28 -20 -49 -22 -47 -2 2 3 23 11 47 101 287 72 633 -77 910 -171 320 -502
550 -871 604 -96 15 -248 19 -322 9z m255 -12 c34 -4 -13 -6 -120 -6 -96 0
-155 3 -130 6 61 8 183 8 250 0z m-355 -27 c-80 -19 -123 -26 -105 -17 31 14
106 31 135 31 19 0 9 -5 -30 -14z m521 0 c93 -24 73 -27 -27 -5 -46 11 -74 20
-61 20 13 1 52 -6 88 -15z m-350 -19 c6 -14 8 -13 20 2 12 16 13 15 14 -14 0
-35 -8 -41 -28 -21 -9 9 -12 8 -13 -7 0 -19 -1 -19 -9 0 -12 28 -12 55 0 55 6
0 13 -7 16 -15z m97 8 c-7 -2 -13 -16 -13 -29 0 -13 -4 -24 -10 -24 -5 0 -10
11 -10 24 0 13 -6 27 -12 29 -7 3 3 5 22 5 19 0 29 -2 23 -5z m64 -31 c1 -25
-2 -31 -11 -23 -9 7 -16 7 -24 -1 -9 -9 -12 -5 -12 18 0 35 8 46 30 42 9 -2
16 -15 17 -36z m-216 21 c-11 -5 -11 -7 0 -14 10 -6 11 -9 2 -9 -19 0 -16 -18
5 -23 13 -4 12 -5 -4 -6 -21 -1 -34 16 -34 45 0 8 9 14 23 13 12 0 16 -3 8 -6z
m279 -5 c0 -7 3 -24 7 -38 6 -22 5 -24 -10 -12 -9 8 -21 11 -27 7 -13 -8 -13
-2 2 30 12 26 28 34 28 13z m-545 -13 c-50 -21 -83 -26 -40 -6 22 11 47 19 55
19 8 0 2 -5 -15 -13z m135 -5 c-11 -7 -12 -10 -2 -10 7 0 10 -5 6 -11 -3 -6 0
-15 7 -20 11 -7 9 -9 -7 -9 -27 0 -40 57 -15 63 22 5 28 -2 11 -13z m53 0 c-4
-14 1 -22 18 -29 23 -9 23 -10 3 -10 -27 -1 -46 21 -38 43 9 23 23 20 17 -4z
m418 -30 c5 0 9 -4 9 -9 0 -5 -9 -7 -20 -4 -21 6 -25 20 -12 50 6 15 8 13 10
-9 2 -16 8 -28 13 -28z m179 40 c13 -9 13 -10 0 -10 -8 0 -22 5 -30 10 -13 9
-13 10 0 10 8 0 22 -5 30 -10z m-136 -34 c-3 -14 -10 -26 -15 -26 -5 0 -6 7
-4 15 3 8 7 22 10 31 9 27 17 9 9 -20z m66 17 c0 -3 -8 -15 -17 -25 -15 -17
-15 -20 -3 -28 8 -6 11 -10 5 -10 -5 0 -17 4 -25 10 -12 7 -12 12 4 28 13 15
14 21 4 25 -7 3 -3 6 10 6 12 1 22 -2 22 -6z m120 -3 c8 -5 11 -10 5 -10 -5 0
-17 5 -25 10 -8 5 -10 10 -5 10 6 0 17 -5 25 -10z m-737 -12 c7 -21 -12 -48
-33 -48 -11 0 -20 6 -20 14 0 8 -3 21 -6 30 -5 12 1 16 24 16 17 0 32 -6 35
-12z m677 -38 c0 -26 -2 -27 -24 -17 -13 7 -22 15 -19 19 2 5 9 5 15 2 7 -4 8
-2 4 4 -4 7 -4 17 -1 22 11 17 25 0 25 -30z m150 10 c33 -17 60 -33 60 -35 0
-5 -119 52 -129 61 -13 12 16 1 69 -26z m-1031 16 c-10 -9 -109 -56 -109 -51
0 6 91 54 104 55 5 0 7 -2 5 -4z m941 -16 c9 -6 10 -10 3 -10 -6 0 -15 -9 -18
-20 -3 -11 -11 -20 -16 -20 -6 0 -5 8 1 20 6 11 8 25 5 30 -8 13 6 13 25 0z
m-840 -10 c0 -5 -4 -10 -10 -10 -5 0 -10 5 -10 10 0 6 5 10 10 10 6 0 10 -4
10 -10z m652 -24 c166 -43 299 -111 431 -222 84 -71 191 -199 231 -277 29 -57
21 -47 -38 46 -56 87 -215 243 -309 301 -227 141 -503 196 -762 151 -215 -38
-413 -141 -566 -295 -116 -117 -203 -254 -247 -390 -34 -103 -43 -157 -51
-285 l-8 -120 -1 95 c-8 491 390 940 903 1020 106 16 308 5 417 -24z m-739 1
c4 3 7 1 7 -5 0 -5 3 -19 7 -29 4 -12 -2 -9 -20 10 -28 29 -37 48 -14 28 8 -6
17 -8 20 -4z m957 -17 c-6 -12 -14 -19 -17 -17 -2 3 1 15 7 27 6 12 14 19 17
17 2 -3 -1 -15 -7 -27z m-1016 -4 c-3 -8 -1 -17 5 -21 6 -3 11 -14 11 -23 0
-11 -6 -7 -19 13 -18 30 -18 45 -1 45 5 0 7 -6 4 -14z m1084 2 c14 -14 -2 -48
-22 -48 -20 0 -37 25 -30 44 7 19 35 21 52 4z m-1188 -12 c0 -2 -12 -11 -27
-20 l-28 -17 24 20 c23 21 31 25 31 17z m80 -57 c0 -18 -10 -8 -25 24 l-16 32
21 -24 c11 -13 20 -27 20 -32z m1177 22 c13 11 13 8 -3 -16 -18 -28 -19 -28
-22 -7 -4 25 -12 28 -31 10 -8 -7 -5 0 5 16 18 28 18 28 26 6 7 -19 10 -21 25
-9z m-1207 -34 c0 -5 -12 -6 -26 -3 -19 5 -24 4 -18 -6 6 -10 3 -9 -9 1 -26
20 -20 32 11 25 25 -7 26 -6 12 12 -14 19 -14 19 8 0 12 -11 22 -23 22 -29z
m-110 30 c0 -2 -19 -18 -42 -36 l-43 -32 39 35 c37 34 46 40 46 33z m790 -33
c0 -2 -10 -3 -22 -3 -13 0 -34 -2 -48 -6 -20 -5 -19 -3 5 8 26 12 65 12 65 1z
m-780 -44 c12 -12 15 -20 7 -20 -7 0 -18 9 -25 20 -7 11 -10 20 -7 20 3 0 14
-9 25 -20z m-21 -44 c0 -6 -3 -6 -6 2 -2 6 -11 12 -19 12 -8 0 -14 7 -14 17 0
14 2 14 20 -2 11 -10 20 -23 19 -29z m1434 37 c-7 -2 -13 -12 -13 -20 0 -9 -3
-14 -6 -10 -10 10 4 37 18 36 10 0 10 -2 1 -6z m-1533 -7 c0 -2 -8 -10 -17
-17 -16 -13 -17 -12 -4 4 13 16 21 21 21 13z m872 -49 c119 -80 284 -137 448
-155 l65 -7 0 -285 c-1 -238 -4 -296 -18 -350 -18 -66 -84 -216 -92 -209 -2 3
7 27 20 54 14 28 34 86 45 130 18 73 20 107 18 360 l-3 280 -70 8 c-149 16
-311 73 -422 147 -24 17 -47 30 -51 30 -4 0 -25 -12 -46 -26 -109 -75 -260
-130 -403 -148 l-98 -12 -3 -244 c-3 -260 6 -366 37 -452 32 -90 33 -94 10
-54 -60 109 -62 127 -67 462 l-4 311 73 7 c152 14 353 86 454 164 22 17 41 31
41 31 1 1 30 -18 66 -42z m-792 11 c0 -5 -10 -6 -22 -2 -21 6 -22 5 -8 -12 14
-19 14 -19 -7 0 -13 10 -20 22 -18 26 6 10 55 0 55 -12z m1470 2 c0 -5 -5 -10
-11 -10 -5 0 -7 5 -4 10 3 6 8 10 11 10 2 0 4 -4 4 -10z m50 7 c0 -2 -9 -14
-20 -27 -11 -13 -20 -19 -20 -15 0 5 7 17 17 27 15 17 23 22 23 15z m-1640
-11 c0 -2 -8 -10 -17 -17 -16 -13 -17 -12 -4 4 13 16 21 21 21 13z m62 -23
c22 -19 25 -41 3 -23 -12 10 -15 10 -15 -4 0 -18 -35 -22 -46 -4 -5 8 0 9 15
5 20 -5 22 -3 17 19 -7 28 0 30 26 7z m832 -29 c21 -15 75 -44 120 -66 44 -21
70 -36 56 -32 -32 9 -133 59 -180 90 l-37 25 -76 -47 c-43 -26 -80 -44 -83
-41 -4 4 4 11 17 16 13 5 49 25 79 45 30 19 57 36 60 36 3 0 23 -12 44 -26z
m779 -8 c-10 -13 -20 -22 -22 -20 -4 4 29 44 36 44 2 0 -4 -11 -14 -24z
m-1723 0 c0 -2 -8 -10 -17 -17 -16 -13 -17 -12 -4 4 13 16 21 21 21 13z m915
-16 c8 -12 -3 -50 -15 -50 -10 0 -18 31 -13 48 6 15 19 16 28 2z m-902 -25
c-3 -9 3 -22 13 -31 18 -14 18 -14 -3 -4 -23 10 -30 30 -16 43 10 11 13 8 6
-8z m47 5 c0 -5 -2 -10 -4 -10 -3 0 -8 5 -11 10 -3 6 -1 10 4 10 6 0 11 -4 11
-10z m902 -10 c11 0 31 -9 45 -20 14 -11 21 -20 16 -20 -5 0 -14 5 -21 12 -9
9 -12 9 -12 0 0 -7 -8 -12 -17 -11 -11 0 -13 3 -5 6 19 8 14 21 -10 25 -12 2
-23 9 -24 16 -1 7 0 8 3 2 2 -5 14 -10 25 -10z m668 10 c0 -5 -7 -10 -15 -10
-8 0 -15 5 -15 10 0 6 7 10 15 10 8 0 15 -4 15 -10z m-1670 -14 c0 -2 -8 -10
-17 -17 -16 -13 -17 -12 -4 4 13 16 21 21 21 13z m904 -5 c3 -4 -6 -6 -19 -3
-16 3 -25 0 -25 -8 0 -7 7 -10 18 -5 13 5 14 4 5 -6 -10 -9 -15 -10 -27 0 -10
8 -16 9 -21 1 -3 -5 -11 -10 -17 -10 -5 0 0 9 13 20 25 20 64 26 73 11z m-149
-21 c-3 -5 -12 -10 -18 -10 -7 0 -6 4 3 10 19 12 23 12 15 0z m819 4 c23 -9
20 -44 -3 -44 -23 0 -35 15 -27 35 6 17 8 17 30 9z m-864 -24 c-8 -5 -22 -9
-30 -9 -10 0 -8 3 5 9 27 12 43 12 25 0z m340 -9 c14 -4 -21 -6 -76 -3 -84 4
-114 1 -172 -17 -85 -25 -161 -74 -226 -144 -29 -31 -40 -39 -27 -20 50 74
163 151 261 179 49 13 200 16 240 5z m-1110 -31 c-6 -11 -13 -20 -16 -20 -2 0
0 9 6 20 6 11 13 20 16 20 2 0 0 -9 -6 -20z m95 10 c3 -6 -1 -7 -9 -4 -18 7
-21 14 -7 14 6 0 13 -4 16 -10z m592 4 c-3 -3 -12 -4 -19 -1 -8 3 -5 6 6 6 11
1 17 -2 13 -5z m508 -10 c20 -8 35 -17 33 -20 -3 -2 -25 4 -49 15 -52 23 -38
28 16 5z m-548 0 c-3 -3 -12 -4 -19 -1 -8 3 -5 6 6 6 11 1 17 -2 13 -5z m309
-19 c0 -14 -6 -25 -12 -25 -7 0 -11 11 -10 25 0 14 6 25 12 25 7 0 11 -11 10
-25z m44 5 c0 -11 -4 -20 -10 -20 -5 0 -10 9 -10 20 0 11 5 20 10 20 6 0 10
-9 10 -20z m68 -2 c-2 -13 -10 -23 -18 -23 -8 0 -16 10 -18 23 -3 17 2 22 18
22 16 0 21 -5 18 -22z m309 16 c-3 -3 -12 -4 -19 -1 -8 3 -5 6 6 6 11 1 17 -2
13 -5z m-784 -11 c-7 -2 -19 -2 -25 0 -7 3 -2 5 12 5 14 0 19 -2 13 -5z m129
0 c-25 -3 -38 -13 -54 -39 -22 -38 -35 -47 -17 -11 22 42 41 57 73 55 l31 -1
-33 -4z m191 -13 c3 -11 1 -18 -4 -14 -5 3 -9 12 -9 20 0 20 7 17 13 -6z m415
8 c7 -7 12 -16 12 -22 0 -5 -6 -2 -12 6 -7 9 -26 19 -43 21 l-30 4 31 2 c16 0
35 -4 42 -11z m109 6 c-3 -3 -12 -4 -19 -1 -8 3 -5 6 6 6 11 1 17 -2 13 -5z
m-910 -10 c-3 -3 -12 -4 -19 -1 -8 3 -5 6 6 6 11 1 17 -2 13 -5z m346 -14 c13
-15 14 -20 3 -20 -7 0 -16 9 -19 20 -3 11 -4 20 -3 20 1 0 9 -9 19 -20z m253
0 c0 -11 -4 -20 -8 -20 -4 0 -8 9 -8 20 0 11 4 20 8 20 4 0 8 -9 8 -20z m377
13 c-7 -2 -19 -2 -25 0 -7 3 -2 5 12 5 14 0 19 -2 13 -5z m-1026 -275 c-1 -51
-3 -10 -3 92 0 102 2 143 3 93 2 -51 2 -135 0 -185z m173 268 c0 -2 -9 -6 -20
-9 -11 -3 -18 -1 -14 4 5 9 34 13 34 5z m688 -70 c30 -28 58 -58 63 -68 5 -10
-19 11 -53 45 -35 35 -74 71 -88 80 l-25 18 25 -12 c13 -7 49 -35 78 -63z
m-737 44 c13 -10 19 -19 12 -20 -6 0 -15 5 -18 11 -4 6 -17 14 -29 19 -15 6
-16 9 -5 9 9 1 27 -8 40 -19z m238 6 c9 -11 7 -15 -9 -19 -15 -4 -20 0 -20 14
0 22 13 25 29 5z m337 -5 c0 -11 -4 -17 -8 -15 -4 3 -8 12 -8 20 0 8 4 14 8
14 4 0 8 -9 8 -19z m28 -11 c-6 -6 -10 -3 -10 10 0 13 4 16 10 10 7 -7 7 -13
0 -20z m268 16 c17 -12 17 -14 -1 -30 -14 -13 -21 -14 -27 -5 -4 7 -3 10 3 6
12 -7 25 17 16 27 -13 13 -42 5 -56 -14 -8 -11 -17 -17 -20 -14 -8 9 34 43 53
43 8 0 23 -6 32 -13z m-1476 -47 c-9 -19 -15 -29 -16 -22 0 15 22 64 27 60 2
-2 -3 -19 -11 -38z m552 24 c10 -10 10 -13 -1 -13 -8 0 -20 6 -26 13 -8 10 -7
14 2 14 7 0 18 -6 25 -14z m241 -4 c11 -19 11 -21 -3 -16 -9 4 -16 1 -16 -6 0
-7 -5 -4 -11 6 -10 17 -5 37 9 37 4 0 13 -10 21 -21z m293 10 c48 -10 148 -53
148 -64 0 -2 -24 7 -54 21 -100 46 -218 53 -311 18 -11 -4 -17 -4 -13 1 11 12
98 34 140 34 20 1 61 -4 90 -10z m174 -15 c16 6 17 4 8 -18 -5 -14 -8 -14 -21
-1 -8 9 -19 12 -25 9 -5 -4 -4 4 3 17 12 21 14 22 17 6 2 -11 9 -16 18 -13z
m102 1 c-3 -3 -9 2 -12 12 -6 14 -5 15 5 6 7 -7 10 -15 7 -18z m-1032 -12
c-10 -10 -19 5 -10 18 6 11 8 11 12 0 2 -7 1 -15 -2 -18z m-186 7 c0 -5 -4
-10 -10 -10 -5 0 -10 5 -10 10 0 6 5 10 10 10 6 0 10 -4 10 -10z m593 -21 c4
-16 3 -18 -9 -8 -7 6 -11 15 -8 20 8 13 11 11 17 -12z m71 -15 c-21 -14 -59
-45 -84 -67 l-45 -42 35 39 c38 42 107 96 123 96 5 0 -8 -12 -29 -26z m513 -4
c13 0 13 -3 3 -15 -11 -14 -15 -14 -30 2 -13 14 -15 21 -6 32 9 12 12 12 14
-2 2 -10 10 -17 19 -17z m-765 -5 c10 6 10 5 2 -4 -13 -14 -40 -5 -49 17 -5
13 -3 13 14 -2 11 -10 25 -15 33 -11z m574 4 c43 -12 96 -24 117 -26 l37 -5 0
-68 c0 -37 3 -82 6 -100 6 -29 5 -31 -16 -28 -16 2 -27 13 -33 33 -16 47 -64
102 -110 124 -51 25 -129 28 -179 7 -49 -21 -102 -84 -124 -147 -28 -80 -25
-226 5 -296 37 -84 127 -153 201 -153 34 0 91 22 110 42 11 12 20 17 20 11 0
-27 -76 -63 -134 -63 -17 0 -54 11 -83 24 -124 58 -191 243 -148 410 14 55 14
59 -2 72 -10 7 -24 14 -30 14 -16 0 -17 16 -1 26 7 4 8 3 4 -4 -5 -8 1 -12 14
-12 12 0 19 -4 16 -9 -3 -5 1 -11 9 -15 8 -3 15 -2 15 3 0 4 18 29 40 53 46
52 105 80 170 80 48 0 141 -34 161 -59 10 -11 14 -11 21 -1 7 10 9 10 5 -2 -6
-21 12 -52 25 -44 6 4 8 3 5 -4 -4 -5 -3 -21 2 -34 8 -18 10 -9 10 42 l1 65
-72 24 c-50 16 -103 25 -168 27 -55 2 -87 1 -76 -4 19 -8 19 -9 0 -16 -11 -4
-20 -3 -22 3 -2 6 -9 11 -15 11 -20 0 -97 -42 -92 -50 3 -4 -3 -14 -13 -21
-15 -13 -16 -12 -3 4 28 35 -8 16 -44 -24 -61 -68 -89 -140 -89 -234 -1 -44 2
-98 6 -120 l7 -40 -17 35 c-12 25 -17 61 -17 125 0 76 5 99 27 146 48 105 129
174 238 203 77 21 125 19 216 -5z m374 6 c0 -2 -13 -11 -28 -19 -24 -13 -29
-13 -29 -1 0 8 4 12 9 9 4 -3 16 0 25 5 21 12 23 13 23 6z m-790 -26 c0 -5 -9
-9 -20 -9 -17 0 -19 2 -8 14 13 14 28 12 28 -5z m958 -13 c2 -10 -2 -22 -9
-26 -20 -13 -39 0 -39 27 0 20 4 24 22 21 13 -2 24 -11 26 -22z m-1362 -5
c-10 -11 -15 -25 -10 -32 4 -8 3 -10 -4 -5 -19 11 -35 -3 -22 -19 9 -10 7 -16
-8 -24 -11 -6 -30 -27 -43 -48 -13 -20 -25 -31 -27 -25 -2 7 -8 10 -13 6 -5
-3 -9 -1 -9 4 0 6 7 12 15 16 9 3 12 12 8 23 -9 24 -23 33 -51 33 -13 0 -21 4
-17 10 3 5 12 7 20 3 13 -5 20 13 16 40 0 4 3 7 9 7 6 0 10 -7 10 -15 0 -11 8
-13 30 -8 20 3 30 1 30 -6 0 -7 -5 -9 -12 -5 -7 4 -8 3 -4 -4 11 -18 27 -14
25 6 -3 33 1 42 20 42 11 0 23 5 26 10 3 6 11 10 17 10 6 0 3 -9 -6 -19z
m1030 -6 c-9 -9 -16 -13 -16 -8 0 12 22 34 28 28 2 -2 -3 -11 -12 -20z m554 0
c0 -8 -7 -15 -15 -15 -8 0 -15 7 -15 15 0 8 7 15 15 15 8 0 15 -7 15 -15z
m-715 -13 c-3 -3 -11 0 -18 7 -9 10 -8 11 6 5 10 -3 15 -9 12 -12z m819 -65
c46 -116 66 -228 64 -362 l-1 -120 -8 145 c-7 148 -22 225 -60 321 -38 97 -41
104 -31 94 5 -5 22 -41 36 -78z m-2035 23 c4 0 13 6 21 13 8 6 4 -1 -10 -18
-14 -16 -26 -32 -27 -34 -2 -2 -2 18 -2 45 1 29 4 38 6 22 2 -16 8 -28 12 -28z
m411 46 c0 -2 -9 -6 -20 -9 -11 -3 -18 -1 -14 4 5 9 34 13 34 5z m1687 -58
c-2 -13 -4 -3 -4 22 0 25 2 35 4 23 2 -13 2 -33 0 -45z m-1398 43 c8 -5 9 -11
3 -15 -5 -3 -15 1 -22 9 -14 16 -3 20 19 6z m-79 -21 c-6 -11 -13 -20 -16 -20
-2 0 0 9 6 20 6 11 13 20 16 20 2 0 0 -9 -6 -20z m810 11 c0 -5 -9 -11 -21
-14 -16 -4 -18 -3 -8 9 13 16 29 19 29 5z m94 -20 c-2 -3 -12 3 -22 13 -16 17
-16 18 5 5 12 -7 20 -15 17 -18z m-944 16 c0 -2 -10 -12 -22 -23 l-23 -19 19
23 c18 21 26 27 26 19z m467 -13 c-3 -3 -12 -4 -19 -1 -8 3 -5 6 6 6 11 1 17
-2 13 -5z m113 -14 c38 -20 40 -23 40 -69 0 -34 -5 -53 -19 -65 -28 -25 -72
-17 -91 16 -13 25 -13 29 3 45 13 13 21 15 34 7 26 -16 27 -34 3 -34 -29 0
-23 -34 6 -38 30 -4 54 23 54 62 0 43 -17 64 -65 81 -22 8 -32 14 -22 15 10 0
36 -9 57 -20z m280 6 c0 -2 -7 -6 -15 -10 -8 -3 -15 -1 -15 4 0 6 7 10 15 10
8 0 15 -2 15 -4z m48 -21 c-3 -3 -9 2 -12 12 -6 14 -5 15 5 6 7 -7 10 -15 7
-18z m-823 -3 c-3 -3 -11 0 -18 7 -9 10 -8 11 6 5 10 -3 15 -9 12 -12z m315 3
c-7 -8 -17 -15 -23 -15 -6 0 -2 7 9 15 25 19 30 19 14 0z m144 4 c14 -7 28
-19 31 -27 5 -13 3 -13 -13 1 -21 19 -42 22 -42 7 0 -5 -4 -10 -10 -10 -5 0
-9 6 -7 13 2 14 -62 14 -72 0 -3 -4 -15 -13 -26 -20 -11 -6 -19 -15 -18 -20 1
-5 -7 -15 -18 -21 -18 -12 -19 -11 -11 5 36 66 124 100 186 72z m816 -4 c10
-12 9 -16 -5 -21 -19 -8 -40 9 -31 25 10 15 21 14 36 -4z m-480 0 c0 -2 -10
-9 -22 -15 -22 -11 -22 -10 -4 4 21 17 26 19 26 11z m-95 -15 c3 -5 1 -10 -4
-10 -6 0 -11 5 -11 10 0 6 2 10 4 10 3 0 8 -4 11 -10z m33 -15 c-3 -3 -9 2
-12 12 -6 14 -5 15 5 6 7 -7 10 -15 7 -18z m-1208 1 c0 -8 -5 -18 -11 -22 -14
-8 -33 11 -25 25 10 16 36 13 36 -3z m503 -1 c-3 -9 -8 -14 -10 -11 -3 3 -2 9
2 15 9 16 15 13 8 -4z m366 6 c7 -5 9 -11 4 -14 -4 -3 -17 1 -28 9 -21 16 0
20 24 5z m-414 -11 c8 -13 -5 -13 -25 0 -13 8 -13 10 2 10 9 0 20 -4 23 -10z
m-75 -37 c-11 -17 -11 -17 -6 0 3 10 6 24 7 30 0 9 2 9 5 0 3 -7 0 -20 -6 -30z
m353 2 c-9 -19 -18 -33 -21 -31 -4 5 26 66 33 66 3 0 -3 -16 -12 -35z m315 0
c-3 -3 -9 2 -12 12 -6 14 -5 15 5 6 7 -7 10 -15 7 -18z m732 15 c0 -5 -4 -10
-10 -10 -5 0 -10 5 -10 10 0 6 5 10 10 10 6 0 10 -4 10 -10z m-103 -16 c9 -25
-26 -49 -44 -31 -8 7 -11 21 -7 30 8 22 43 22 51 1z m-1921 -33 c4 -11 7 -11
21 0 15 13 15 12 5 -8 -7 -12 -16 -24 -21 -27 -10 -6 -21 28 -20 59 1 20 2 18
15 -24z m150 2 c-11 -11 -19 6 -11 24 8 17 8 17 12 0 3 -10 2 -21 -1 -24z
m2047 -21 c-8 -21 -9 -21 -21 -2 -10 16 -10 20 0 18 7 -2 15 8 17 22 4 22 5
22 8 5 2 -12 0 -31 -4 -43z m-2246 26 c-3 -8 -6 -5 -6 6 -1 11 2 17 5 13 3 -3
4 -12 1 -19z m293 11 c0 -6 7 -8 18 -5 16 7 16 6 0 -10 -19 -20 -50 -12 -42
11 7 17 24 20 24 4z m430 -5 c0 -2 -7 -4 -15 -4 -8 0 -15 4 -15 10 0 5 7 7 15
4 8 -4 15 -8 15 -10z m157 -26 c-3 -7 -5 -2 -5 12 0 14 2 19 5 13 2 -7 2 -19
0 -25z m53 22 c0 -5 -8 -10 -17 -10 -15 0 -16 2 -3 10 19 12 20 12 20 0z m176
-6 c18 -14 18 -14 -6 -3 -31 14 -36 19 -24 19 6 0 19 -7 30 -16z m944 -4 c0
-5 -2 -10 -4 -10 -3 0 -8 5 -11 10 -3 6 -1 10 4 10 6 0 11 -4 11 -10z m50 -39
c0 -11 -3 -11 -14 -1 -8 6 -12 18 -9 27 5 12 7 12 14 1 5 -7 9 -19 9 -27z
m-1814 11 c-3 -3 -21 -5 -40 -6 -24 -1 -31 2 -25 10 5 6 22 9 39 6 17 -2 29
-7 26 -10z m711 -4 c-3 -8 -6 -5 -6 6 -1 11 2 17 5 13 3 -3 4 -12 1 -19z m540
0 c-3 -8 -6 -5 -6 6 -1 11 2 17 5 13 3 -3 4 -12 1 -19z m268 12 c8 -13 -14
-42 -26 -34 -5 3 -9 14 -9 25 0 20 24 26 35 9z m-970 -24 c0 -15 -4 -21 -9
-16 -5 5 -6 16 -3 24 9 22 12 20 12 -8z m72 2 c-3 -8 -6 -5 -6 6 -1 11 2 17 5
13 3 -3 4 -12 1 -19z m430 7 c-5 -14 -29 -13 -34 2 -3 7 4 11 16 10 12 -1 20
-6 18 -12z m-1187 -5 c0 -5 -2 -10 -4 -10 -3 0 -8 5 -11 10 -3 6 -1 10 4 10 6
0 11 -4 11 -10z m597 -12 c-3 -8 -6 -5 -6 6 -1 11 2 17 5 13 3 -3 4 -12 1 -19z
m271 -23 c-6 -14 -13 -23 -15 -21 -5 5 15 46 22 46 3 0 -1 -11 -7 -25z m477 7
c-3 -3 -11 0 -18 7 -9 10 -8 11 6 5 10 -3 15 -9 12 -12z m535 -7 c0 -8 -4 -15
-10 -15 -5 0 -10 7 -10 15 0 8 5 15 10 15 6 0 10 -7 10 -15z m-1155 -5 c3 -5
1 -10 -4 -10 -6 0 -11 5 -11 10 0 6 2 10 4 10 3 0 8 -4 11 -10z m-898 -37 c-3
-10 -5 -4 -5 12 0 17 2 24 5 18 2 -7 2 -21 0 -30z m1088 17 c3 -6 -1 -7 -10
-4 -9 4 -25 -2 -35 -11 -11 -10 -20 -15 -20 -10 0 11 32 34 47 35 6 0 15 -4
18 -10z m353 1 c75 -1 92 -4 92 -16 0 -8 -7 -15 -15 -15 -28 0 -49 -51 -56
-134 l-6 -81 -1 86 c-2 74 1 90 19 113 l20 26 -145 0 c-116 0 -146 -3 -146
-13 0 -10 14 -14 46 -13 69 1 84 -23 83 -128 l-2 -81 -7 84 c-6 64 -12 88 -26
98 -24 17 -69 17 -84 -2 -7 -8 -16 -15 -21 -15 -9 0 -13 83 -4 92 3 3 40 4 83
2 42 -1 119 -3 170 -3z m-1391 -31 c3 0 12 8 20 18 9 11 8 4 -3 -18 -15 -31
-18 -33 -25 -15 -4 11 -7 27 -7 35 0 10 2 9 5 -2 2 -10 7 -18 10 -18z m2027 3
c-26 -19 -36 -16 -24 7 6 12 16 17 27 13 14 -6 14 -8 -3 -20z m212 -9 c-4 -14
-9 -24 -12 -21 -3 2 -2 17 2 31 3 15 9 25 11 22 3 -3 2 -17 -1 -32z m-476 11
c0 -8 -4 -15 -10 -15 -5 0 -10 7 -10 15 0 8 5 15 10 15 6 0 10 -7 10 -15z
m155 -15 c0 -7 -6 -15 -12 -17 -8 -3 -13 4 -13 17 0 13 5 20 13 18 6 -3 12
-11 12 -18z m-1795 -15 c0 -8 -4 -15 -10 -15 -5 0 -10 7 -10 15 0 8 5 15 10
15 6 0 10 -7 10 -15z m1810 -73 c0 -11 -8 -18 -20 -19 -19 -2 -27 16 -13 30
13 13 33 7 33 -11z m-737 -29 c-23 -4 -33 -33 -12 -33 5 0 7 -5 3 -12 -5 -8
-11 -5 -20 7 -17 23 -1 46 30 44 20 -2 20 -2 -1 -6z m-863 -10 c0 -5 -5 -15
-10 -23 -8 -12 -10 -11 -10 8 0 12 5 22 10 22 6 0 10 -3 10 -7z m95 -14 c11
-16 1 -19 -13 -3 -7 8 -8 14 -3 14 5 0 13 -5 16 -11z m596 -6 c13 -16 12 -17
-3 -4 -10 7 -18 15 -18 17 0 8 8 3 21 -13z m-213 -18 c-3 -3 -9 2 -12 12 -6
14 -5 15 5 6 7 -7 10 -15 7 -18z m-528 5 c0 -5 -2 -10 -4 -10 -3 0 -8 5 -11
10 -3 6 -1 10 4 10 6 0 11 -4 11 -10z m34 -52 c-3 -4 -12 -8 -20 -8 -17 0 -19
27 -1 33 14 5 28 -13 21 -25z m126 12 c0 -5 -2 -10 -4 -10 -3 0 -8 5 -11 10
-3 6 -1 10 4 10 6 0 11 -4 11 -10z m1790 0 c0 -5 -5 -10 -11 -10 -5 0 -7 5 -4
10 3 6 8 10 11 10 2 0 4 -4 4 -10z m-290 -27 c-1 -24 -2 -26 -11 -10 -5 9 -7
22 -4 27 10 17 15 11 15 -17z m-770 7 c0 -5 -12 -10 -27 -9 l-28 1 25 8 c14 4
26 8 28 9 1 1 2 -3 2 -9z m-1103 -42 c-3 -7 -5 -2 -5 12 0 14 2 19 5 13 2 -7
2 -19 0 -25z m2090 -10 c-3 -8 -6 -5 -6 6 -1 11 2 17 5 13 3 -3 4 -12 1 -19z
m-1897 -24 c0 -8 -5 -12 -10 -9 -6 4 -8 11 -5 16 9 14 15 11 15 -7z m196 -20
c-5 -13 -10 -14 -18 -6 -6 6 -8 18 -4 28 5 13 10 14 18 6 6 -6 8 -18 4 -28z
m-379 4 c-3 -8 -6 -5 -6 6 -1 11 2 17 5 13 3 -3 4 -12 1 -19z m2070 -10 c-3
-8 -6 -5 -6 6 -1 11 2 17 5 13 3 -3 4 -12 1 -19z m-182 2 c3 -5 1 -10 -4 -10
-6 0 -11 5 -11 10 0 6 2 10 4 10 3 0 8 -4 11 -10z m-422 -59 c-15 -22 -30 -38
-32 -36 -3 4 49 75 56 75 2 0 -8 -18 -24 -39z m-973 3 c0 -7 -5 -16 -11 -20
-13 -8 -34 11 -26 23 9 14 37 12 37 -3z m-265 -14 c-3 -5 -10 -10 -16 -10 -5
0 -9 5 -9 10 0 6 7 10 16 10 8 0 12 -4 9 -10z m410 -20 c10 -11 16 -20 13 -20
-3 0 -13 9 -23 20 -10 11 -16 20 -13 20 3 0 13 -9 23 -20z m-183 -52 c48 -5
98 -13 110 -18 25 -10 -23 -6 -145 11 -64 9 -156 45 -157 62 0 4 24 -5 53 -19
37 -19 78 -30 139 -36z m1348 46 c0 -8 -4 -13 -8 -10 -5 3 -23 -4 -42 -15 -22
-14 -63 -24 -124 -30 -50 -5 -102 -11 -116 -14 -21 -4 -22 -3 -8 5 10 6 58 14
107 19 80 7 117 19 189 60 1 0 2 -6 2 -15z m-420 -59 c-24 -25 -46 -45 -49
-45 -3 0 15 20 39 45 24 25 46 45 49 45 3 0 -15 -20 -39 -45z m-996 -4 c25
-10 28 -15 22 -42 -13 -65 -38 -139 -47 -139 -22 0 -79 30 -79 42 0 7 14 25
31 39 30 24 31 27 16 50 -8 13 -18 35 -22 48 -7 22 -5 24 21 18 16 -3 42 -10
58 -16z m1376 7 c-1 -7 -9 -29 -19 -48 l-19 -35 31 -26 c39 -32 32 -54 -23
-70 -22 -7 -42 -10 -44 -8 -2 2 -7 20 -10 39 -3 19 -12 56 -20 82 l-14 47 47
15 c60 18 71 19 71 4z m10 -38 c-6 -11 -13 -20 -16 -20 -2 0 0 9 6 20 6 11 13
20 16 20 2 0 0 -9 -6 -20z m-1831 -65 c0 -5 -6 1 -14 15 -8 14 -14 30 -14 35
0 6 6 -1 14 -15 8 -14 14 -29 14 -35z m822 38 c13 -16 12 -17 -3 -4 -10 7 -18
15 -18 17 0 8 8 3 21 -13z m-446 -22 c-3 -6 -11 -11 -16 -11 -5 0 -4 6 3 14
14 16 24 13 13 -3z m1212 13 c-3 -3 -12 -4 -19 -1 -8 3 -5 6 6 6 11 1 17 -2
13 -5z m-840 -10 c-3 -3 -12 -4 -19 -1 -8 3 -5 6 6 6 11 1 17 -2 13 -5z m1444
-17 c-10 -9 -11 -8 -5 6 3 10 9 15 12 12 3 -3 0 -11 -7 -18z m-2173 -42 c-3
-3 -9 2 -12 12 -6 14 -5 15 5 6 7 -7 10 -15 7 -18z m598 -5 c68 -30 184 -58
326 -80 l123 -19 -95 4 c-52 3 -129 14 -171 24 -102 26 -270 91 -235 91 2 0
26 -9 52 -20z m944 -12 c-93 -43 -239 -78 -350 -83 l-95 -4 100 14 c135 19
268 51 335 79 79 34 87 30 10 -6z m-570 -14 c0 -2 -13 2 -30 11 -16 9 -30 18
-30 21 0 2 14 -2 30 -11 17 -9 30 -18 30 -21z m41 -21 c13 -17 13 -17 -6 -3
-11 8 -22 16 -24 17 -2 2 0 3 6 3 6 0 17 -8 24 -17z m149 13 c0 -2 -7 -7 -16
-10 -8 -3 -12 -2 -9 4 6 10 25 14 25 6z m-77 -33 c-7 -2 -19 -2 -25 0 -7 3 -2
5 12 5 14 0 19 -2 13 -5z m393 -22 c-3 -5 -2 -36 2 -69 10 -69 8 -69 -66 -19
l-44 29 6 -48 6 -49 -15 45 c-8 25 -19 52 -24 61 -5 9 -7 20 -4 23 14 13 38 4
79 -29 23 -19 45 -35 49 -35 9 0 -5 62 -17 77 -6 7 -4 13 4 16 21 9 30 8 24
-2z m-698 -17 c13 -4 22 -14 22 -25 0 -19 -1 -19 -29 2 -19 14 -36 19 -50 14
-49 -15 -52 -97 -5 -115 33 -13 47 -4 41 27 -3 18 -1 23 10 19 8 -3 22 -6 31
-7 12 0 13 -2 4 -6 -7 -3 -17 -16 -22 -29 -16 -41 -89 -24 -116 27 -18 36 -18
49 2 77 16 23 61 29 112 16z m186 -34 c26 -10 36 -43 16 -55 -6 -4 -5 -13 3
-25 25 -41 -19 -69 -87 -56 l-31 6 3 70 4 70 33 0 c19 0 45 -4 59 -10z m306
-49 c0 -63 -16 -91 -25 -44 -3 15 -9 45 -14 66 -8 35 -7 37 15 37 23 0 24 -4
24 -59z m-172 -12 c-4 -33 -5 -65 -2 -71 4 -6 22 -8 43 -4 25 4 31 2 21 -4 -8
-5 -37 -9 -65 -9 -27 1 -42 3 -33 6 9 2 15 10 13 16 -3 7 -8 38 -13 70 l-9 57
27 0 27 0 -9 -61z m-368 -89 c18 -12 2 -12 -25 0 -13 6 -15 9 -5 9 8 0 22 -4
30 -9z m67 -16 c-3 -3 -12 -4 -19 -1 -8 3 -5 6 6 6 11 1 17 -2 13 -5z m576 -1
c-7 -2 -19 -2 -25 0 -7 3 -2 5 12 5 14 0 19 -2 13 -5z m-46 -9 c-3 -3 -12 -4
-19 -1 -8 3 -5 6 6 6 11 1 17 -2 13 -5z m-87 -16 c-72 -8 -271 -8 -335 0 -27
4 49 7 170 7 121 0 195 -3 165 -7z m87 -294 c-3 -3 -12 -4 -19 -1 -8 3 -5 6 6
6 11 1 17 -2 13 -5z m-344 -21 c-7 -2 -21 -2 -30 0 -10 3 -4 5 12 5 17 0 24
-2 18 -5z m225 0 c-10 -2 -26 -2 -35 0 -10 3 -2 5 17 5 19 0 27 -2 18 -5z"/>
<path d="M954 2314 c3 -9 6 -18 6 -20 0 -3 5 -2 10 1 16 10 12 35 -6 35 -11 0
-14 -5 -10 -16z"/>
<path d="M1785 2240 c-8 -14 3 -30 21 -30 8 0 14 9 14 20 0 21 -24 28 -35 10z"/>
<path d="M1320 1855 c0 -8 5 -15 10 -15 6 0 10 7 10 15 0 8 -4 15 -10 15 -5 0
-10 -7 -10 -15z"/>
<path d="M1117 590 c-6 -23 13 -36 39 -26 22 8 13 40 -12 44 -15 2 -23 -4 -27
-18z"/>
<path d="M1110 536 c0 -8 -3 -21 -6 -30 -5 -12 1 -16 24 -16 40 0 58 22 37 44
-20 20 -55 21 -55 2z"/>
<path d="M2482 1150 c0 -19 2 -27 5 -17 2 9 2 25 0 35 -3 9 -5 1 -5 -18z"/>
<path d="M2472 1080 c0 -14 2 -19 5 -12 2 6 2 18 0 25 -3 6 -5 1 -5 -13z"/>
<path d="M2462 1030 c0 -14 2 -19 5 -12 2 6 2 18 0 25 -3 6 -5 1 -5 -13z"/>
</g>
</svg>
